<svg xmlns="http://www.w3.org/2000/svg" xmlns:xlink="http://www.w3.org/1999/xlink" width="512" zoomAndPan="magnify" viewBox="0 0 384 383.999986" height="512" preserveAspectRatio="xMidYMid meet" version="1.0"><defs><clipPath id="9d5482a386"><path d="M 9.773438 12 L 384 12 L 384 383 L 9.773438 383 Z M 9.773438 12 " clip-rule="nonzero"/></clipPath></defs><g clip-path="url(#9d5482a386)"><path fill="#f4c61e" d="M 235.882812 382.652344 C 234.121094 382.652344 232.40625 382.058594 231.003906 380.9375 C 229.164062 379.457031 228.085938 377.226562 228.085938 374.855469 L 228.085938 316.847656 C 228.085938 302.828125 226.292969 292.878906 222.425781 285.582031 C 221.289062 283.445312 221.226562 280.902344 222.222656 278.703125 C 223.222656 276.503906 225.203125 274.898438 227.558594 274.355469 C 273.777344 263.6875 306.054688 229.863281 306.054688 192.097656 C 306.054688 173.382812 298.367188 155.527344 283.835938 140.449219 C 281.589844 138.125 281.011719 134.679688 282.367188 131.75 C 288.167969 119.242188 286.9375 102.214844 280.0625 92 C 270.96875 95.554688 259.164062 102.992188 251.492188 112.101562 C 249.402344 114.609375 245.957031 115.53125 242.855469 114.394531 C 213.617188 103.664062 180.199219 103.664062 150.960938 114.394531 C 147.886719 115.515625 144.425781 114.609375 142.320312 112.117188 C 134.648438 103.007812 122.84375 95.570312 113.738281 92.015625 C 106.859375 102.230469 105.628906 119.257812 111.429688 131.765625 C 112.785156 134.679688 112.210938 138.125 109.964844 140.449219 C 95.429688 155.527344 87.742188 173.398438 87.742188 192.097656 C 87.742188 228.070312 116.792969 260.476562 160.035156 272.714844 C 163.402344 273.683594 165.710938 276.738281 165.710938 280.234375 L 165.710938 285.675781 C 165.710938 295.4375 161.796875 300.941406 158.507812 303.855469 C 151.460938 310.046875 142.351562 309.113281 141.355469 309.003906 C 141.308594 309.003906 141.246094 309.003906 141.199219 309.003906 C 128.347656 309.003906 118.679688 301.84375 109.339844 294.921875 C 104.648438 291.445312 99.890625 287.90625 94.355469 284.972656 C 95.554688 286.59375 96.742188 288.261719 97.941406 289.933594 C 109.636719 306.195312 122.875 324.644531 142.335938 324.644531 L 157.929688 324.644531 C 162.234375 324.644531 165.726562 328.136719 165.726562 332.441406 L 165.726562 374.855469 C 165.726562 377.226562 164.652344 379.457031 162.8125 380.9375 C 160.957031 382.402344 158.554688 382.949219 156.246094 382.464844 C 71.371094 363.628906 9.773438 286.859375 9.773438 199.894531 C 9.773438 96.710938 93.714844 12.769531 196.898438 12.769531 C 300.082031 12.769531 384.023438 96.710938 384.023438 199.894531 C 384.023438 286.84375 322.429688 363.628906 237.566406 382.464844 C 237.007812 382.589844 236.445312 382.652344 235.882812 382.652344 Z M 239.90625 287.203125 C 242.464844 295.265625 243.679688 304.933594 243.679688 316.847656 L 243.679688 364.84375 C 316.519531 344.167969 368.429688 276.320312 368.429688 199.894531 C 368.429688 105.316406 291.476562 28.363281 196.898438 28.363281 C 102.324219 28.363281 25.367188 105.316406 25.367188 199.894531 C 25.367188 276.320312 77.28125 344.167969 150.117188 364.84375 L 150.117188 340.238281 L 142.320312 340.238281 C 114.875 340.238281 98.457031 317.390625 85.265625 299.023438 C 77.792969 288.621094 70.058594 277.863281 64.351562 277.863281 C 60.046875 277.863281 56.554688 274.371094 56.554688 270.066406 C 56.554688 265.761719 60.046875 262.269531 64.351562 262.269531 C 91.484375 262.269531 106.535156 273.417969 118.617188 282.382812 C 126.976562 288.574219 133.558594 293.457031 142.320312 293.457031 C 143.195312 293.503906 146.421875 293.738281 148.230469 292.113281 C 149.710938 290.773438 150.085938 288.105469 150.117188 286.003906 C 103.242188 270.609375 72.148438 233.484375 72.148438 192.113281 C 72.148438 170.84375 80.132812 150.632812 95.289062 133.386719 C 88.601562 114.003906 92.734375 90.332031 105.613281 77.4375 C 107.5625 75.472656 110.402344 74.675781 113.113281 75.410156 C 123.53125 78.167969 139 86.261719 150.554688 98.035156 C 180.261719 88.351562 213.492188 88.351562 243.199219 98.035156 C 254.753906 86.261719 270.222656 78.167969 280.636719 75.410156 C 283.335938 74.675781 286.171875 75.457031 288.136719 77.4375 C 301.035156 90.332031 305.152344 114.003906 298.460938 133.371094 C 313.664062 150.632812 321.648438 170.84375 321.648438 192.097656 C 321.648438 234.636719 288.480469 272.714844 239.90625 287.203125 Z M 239.90625 287.203125 " fill-opacity="1" fill-rule="nonzero"/></g></svg>