<svg xmlns="http://www.w3.org/2000/svg" xmlns:xlink="http://www.w3.org/1999/xlink" width="512" zoomAndPan="magnify" viewBox="0 0 384 383.999986" height="512" preserveAspectRatio="xMidYMid meet" version="1.0"><defs><clipPath id="0ee98972a9"><path d="M 7.3125 3.65625 L 376.3125 3.65625 L 376.3125 372.65625 L 7.3125 372.65625 Z M 7.3125 3.65625 " clip-rule="nonzero"/></clipPath></defs><path fill="#f4c61e" d="M 273.261719 210.851562 L 273.261719 266.808594 L 238.601562 266.808594 L 238.601562 210.851562 C 238.601562 202.769531 238.601562 183.183594 220.878906 183.183594 C 200.675781 183.183594 199.585938 203.546875 199.585938 203.546875 L 199.585938 266.960938 L 164.769531 266.960938 L 164.769531 154.894531 L 199.585938 154.894531 L 199.585938 170.28125 C 207.824219 153.496094 224.609375 152.25 235.648438 152.25 C 248.238281 152.25 259.429688 157.070312 265.957031 167.949219 C 271.550781 177.121094 273.261719 190.179688 273.261719 210.851562 Z M 273.261719 210.851562 " fill-opacity="1" fill-rule="nonzero"/><path fill="#f4c61e" d="M 150.78125 119.609375 C 150.78125 120.273438 150.746094 120.933594 150.683594 121.589844 C 150.617188 122.25 150.519531 122.902344 150.390625 123.554688 C 150.261719 124.203125 150.101562 124.84375 149.910156 125.476562 C 149.71875 126.109375 149.496094 126.730469 149.242188 127.34375 C 148.988281 127.953125 148.707031 128.550781 148.394531 129.136719 C 148.082031 129.71875 147.742188 130.285156 147.375 130.835938 C 147.007812 131.386719 146.613281 131.917969 146.191406 132.429688 C 145.773438 132.941406 145.328125 133.429688 144.863281 133.898438 C 144.394531 134.367188 143.902344 134.8125 143.390625 135.230469 C 142.878906 135.648438 142.351562 136.042969 141.800781 136.410156 C 141.25 136.78125 140.683594 137.121094 140.097656 137.429688 C 139.515625 137.742188 138.917969 138.027344 138.304688 138.277344 C 137.695312 138.53125 137.070312 138.753906 136.4375 138.945312 C 135.804688 139.140625 135.164062 139.300781 134.515625 139.429688 C 133.867188 139.558594 133.210938 139.65625 132.554688 139.71875 C 131.894531 139.785156 131.234375 139.816406 130.574219 139.816406 C 129.910156 139.816406 129.25 139.785156 128.59375 139.71875 C 127.933594 139.65625 127.28125 139.558594 126.632812 139.429688 C 125.980469 139.300781 125.339844 139.140625 124.707031 138.945312 C 124.074219 138.753906 123.453125 138.53125 122.839844 138.277344 C 122.230469 138.027344 121.632812 137.742188 121.046875 137.429688 C 120.464844 137.121094 119.898438 136.78125 119.347656 136.410156 C 118.796875 136.042969 118.265625 135.648438 117.753906 135.230469 C 117.242188 134.8125 116.753906 134.367188 116.285156 133.898438 C 115.816406 133.429688 115.375 132.941406 114.953125 132.429688 C 114.535156 131.917969 114.140625 131.386719 113.773438 130.835938 C 113.40625 130.285156 113.066406 129.71875 112.753906 129.136719 C 112.441406 128.550781 112.160156 127.953125 111.90625 127.34375 C 111.652344 126.730469 111.429688 126.109375 111.238281 125.476562 C 111.042969 124.84375 110.882812 124.203125 110.753906 123.554688 C 110.625 122.902344 110.527344 122.25 110.464844 121.589844 C 110.398438 120.933594 110.367188 120.273438 110.367188 119.609375 C 110.367188 118.949219 110.398438 118.289062 110.464844 117.628906 C 110.527344 116.972656 110.625 116.316406 110.753906 115.667969 C 110.882812 115.019531 111.042969 114.378906 111.238281 113.746094 C 111.429688 113.113281 111.652344 112.488281 111.90625 111.878906 C 112.160156 111.265625 112.441406 110.667969 112.753906 110.085938 C 113.066406 109.5 113.40625 108.933594 113.773438 108.382812 C 114.140625 107.835938 114.535156 107.304688 114.953125 106.792969 C 115.375 106.28125 115.816406 105.789062 116.285156 105.324219 C 116.753906 104.855469 117.242188 104.410156 117.753906 103.992188 C 118.265625 103.570312 118.796875 103.175781 119.347656 102.808594 C 119.898438 102.441406 120.464844 102.101562 121.046875 101.789062 C 121.632812 101.476562 122.230469 101.195312 122.839844 100.941406 C 123.453125 100.6875 124.074219 100.464844 124.707031 100.273438 C 125.339844 100.082031 125.980469 99.921875 126.632812 99.792969 C 127.28125 99.664062 127.933594 99.566406 128.59375 99.5 C 129.25 99.4375 129.910156 99.40625 130.574219 99.40625 C 131.234375 99.40625 131.894531 99.4375 132.554688 99.5 C 133.210938 99.566406 133.867188 99.664062 134.515625 99.792969 C 135.164062 99.921875 135.804688 100.082031 136.4375 100.273438 C 137.070312 100.464844 137.695312 100.6875 138.304688 100.941406 C 138.917969 101.195312 139.515625 101.476562 140.097656 101.789062 C 140.683594 102.101562 141.25 102.441406 141.800781 102.808594 C 142.351562 103.175781 142.878906 103.570312 143.390625 103.992188 C 143.902344 104.410156 144.394531 104.855469 144.863281 105.324219 C 145.328125 105.789062 145.773438 106.28125 146.191406 106.792969 C 146.613281 107.304688 147.007812 107.835938 147.375 108.382812 C 147.742188 108.933594 148.082031 109.5 148.394531 110.085938 C 148.707031 110.667969 148.988281 111.265625 149.242188 111.878906 C 149.496094 112.488281 149.71875 113.113281 149.910156 113.746094 C 150.101562 114.378906 150.261719 115.019531 150.390625 115.667969 C 150.519531 116.316406 150.617188 116.972656 150.683594 117.628906 C 150.746094 118.289062 150.78125 118.949219 150.78125 119.609375 Z M 150.78125 119.609375 " fill-opacity="1" fill-rule="nonzero"/><path fill="#f4c61e" d="M 113.320312 154.894531 L 147.980469 154.894531 L 147.980469 266.960938 L 113.320312 266.960938 Z M 113.320312 154.894531 " fill-opacity="1" fill-rule="nonzero"/><g clip-path="url(#0ee98972a9)"><path fill="#f4c61e" d="M 191.8125 372.65625 C 90.160156 372.65625 7.3125 289.964844 7.3125 188.15625 C 7.3125 86.347656 90.160156 3.65625 191.8125 3.65625 C 293.46875 3.65625 376.3125 86.503906 376.3125 188.15625 C 376.3125 289.8125 293.625 372.65625 191.8125 372.65625 Z M 191.8125 13.761719 C 95.601562 13.761719 17.417969 91.945312 17.417969 188.15625 C 17.417969 284.371094 95.601562 362.554688 191.8125 362.554688 C 288.027344 362.554688 366.210938 284.371094 366.210938 188.15625 C 366.210938 91.945312 288.027344 13.761719 191.8125 13.761719 Z M 191.8125 13.761719 " fill-opacity="1" fill-rule="nonzero"/></g></svg>